<svg xmlns="http://www.w3.org/2000/svg" xmlns:xlink="http://www.w3.org/1999/xlink" width="500" zoomAndPan="magnify" viewBox="0 0 375 374.999991" height="500" preserveAspectRatio="xMidYMid meet" version="1.0"><defs><clipPath id="30e2743c69"><path d="M 4.695312 4.695312 L 369.945312 4.695312 L 369.945312 369.945312 L 4.695312 369.945312 Z M 4.695312 4.695312 " clip-rule="nonzero"/></clipPath></defs><rect x="-37.5" width="450" fill="#ffffff" y="-37.499999" height="449.999989" fill-opacity="1"/><rect x="-37.5" width="450" fill="#ffffff" y="-37.499999" height="449.999989" fill-opacity="1"/><g clip-path="url(#30e2743c69)"><path fill="#1a4789" d="M 369.960938 187.324219 C 369.960938 190.3125 369.886719 193.300781 369.742188 196.285156 C 369.59375 199.269531 369.375 202.25 369.082031 205.222656 C 368.789062 208.199219 368.421875 211.164062 367.984375 214.121094 C 367.546875 217.078125 367.035156 220.019531 366.453125 222.953125 C 365.867188 225.882812 365.214844 228.796875 364.488281 231.699219 C 363.761719 234.597656 362.964844 237.476562 362.097656 240.335938 C 361.230469 243.195312 360.292969 246.035156 359.285156 248.847656 C 358.277344 251.664062 357.203125 254.449219 356.058594 257.210938 C 354.914062 259.972656 353.707031 262.703125 352.425781 265.40625 C 351.148438 268.109375 349.804688 270.777344 348.398438 273.414062 C 346.988281 276.050781 345.515625 278.648438 343.980469 281.210938 C 342.441406 283.777344 340.84375 286.300781 339.183594 288.785156 C 337.523438 291.269531 335.800781 293.714844 334.023438 296.113281 C 332.242188 298.515625 330.402344 300.871094 328.507812 303.179688 C 326.609375 305.492188 324.660156 307.753906 322.652344 309.96875 C 320.644531 312.183594 318.585938 314.347656 316.472656 316.460938 C 314.359375 318.574219 312.195312 320.632812 309.980469 322.640625 C 307.765625 324.648438 305.503906 326.597656 303.191406 328.496094 C 300.882812 330.390625 298.527344 332.230469 296.125 334.011719 C 293.726562 335.789062 291.28125 337.511719 288.796875 339.171875 C 286.3125 340.832031 283.789062 342.429688 281.222656 343.96875 C 278.660156 345.503906 276.058594 346.976562 273.425781 348.386719 C 270.789062 349.792969 268.121094 351.136719 265.417969 352.414062 C 262.714844 353.695312 259.984375 354.90625 257.222656 356.046875 C 254.460938 357.191406 251.675781 358.265625 248.859375 359.273438 C 246.046875 360.28125 243.207031 361.21875 240.347656 362.085938 C 237.488281 362.953125 234.609375 363.75 231.710938 364.476562 C 228.808594 365.203125 225.894531 365.859375 222.964844 366.441406 C 220.03125 367.023438 217.089844 367.535156 214.132812 367.972656 C 211.175781 368.410156 208.210938 368.777344 205.234375 369.070312 C 202.261719 369.363281 199.28125 369.582031 196.296875 369.730469 C 193.3125 369.875 190.324219 369.949219 187.335938 369.949219 C 184.347656 369.949219 181.359375 369.875 178.375 369.730469 C 175.386719 369.582031 172.410156 369.363281 169.433594 369.070312 C 166.460938 368.777344 163.496094 368.410156 160.539062 367.972656 C 157.582031 367.535156 154.636719 367.023438 151.707031 366.441406 C 148.773438 365.859375 145.859375 365.203125 142.960938 364.476562 C 140.0625 363.75 137.179688 362.953125 134.320312 362.085938 C 131.460938 361.21875 128.625 360.28125 125.808594 359.273438 C 122.996094 358.265625 120.207031 357.191406 117.445312 356.046875 C 114.683594 354.90625 111.953125 353.695312 109.25 352.414062 C 106.550781 351.136719 103.882812 349.792969 101.246094 348.386719 C 98.609375 346.976562 96.007812 345.503906 93.445312 343.96875 C 90.882812 342.429688 88.359375 340.832031 85.871094 339.171875 C 83.386719 337.511719 80.945312 335.789062 78.542969 334.011719 C 76.144531 332.230469 73.789062 330.390625 71.476562 328.496094 C 69.167969 326.597656 66.90625 324.648438 64.691406 322.640625 C 62.476562 320.632812 60.3125 318.574219 58.199219 316.460938 C 56.085938 314.347656 54.023438 312.183594 52.015625 309.96875 C 50.011719 307.753906 48.058594 305.492188 46.164062 303.179688 C 44.265625 300.871094 42.429688 298.515625 40.648438 296.113281 C 38.867188 293.714844 37.148438 291.269531 35.488281 288.785156 C 33.824219 286.300781 32.226562 283.777344 30.691406 281.210938 C 29.152344 278.648438 27.679688 276.050781 26.273438 273.414062 C 24.863281 270.777344 23.519531 268.109375 22.242188 265.40625 C 20.964844 262.703125 19.753906 259.972656 18.609375 257.210938 C 17.464844 254.449219 16.390625 251.664062 15.382812 248.847656 C 14.378906 246.035156 13.441406 243.195312 12.570312 240.335938 C 11.703125 237.476562 10.90625 234.597656 10.179688 231.699219 C 9.457031 228.796875 8.800781 225.882812 8.21875 222.953125 C 7.632812 220.019531 7.125 217.078125 6.683594 214.121094 C 6.246094 211.164062 5.878906 208.199219 5.585938 205.222656 C 5.292969 202.25 5.074219 199.269531 4.929688 196.285156 C 4.78125 193.300781 4.707031 190.3125 4.707031 187.324219 C 4.707031 184.335938 4.78125 181.347656 4.929688 178.363281 C 5.074219 175.378906 5.292969 172.398438 5.585938 169.421875 C 5.878906 166.449219 6.246094 163.484375 6.683594 160.527344 C 7.125 157.570312 7.632812 154.625 8.21875 151.695312 C 8.800781 148.761719 9.457031 145.847656 10.179688 142.949219 C 10.90625 140.050781 11.703125 137.167969 12.570312 134.308594 C 13.441406 131.449219 14.378906 128.613281 15.382812 125.796875 C 16.390625 122.984375 17.464844 120.195312 18.609375 117.433594 C 19.753906 114.675781 20.964844 111.941406 22.242188 109.242188 C 23.519531 106.539062 24.863281 103.871094 26.273438 101.234375 C 27.679688 98.597656 29.152344 96 30.691406 93.433594 C 32.226562 90.871094 33.824219 88.347656 35.488281 85.863281 C 37.148438 83.375 38.867188 80.933594 40.648438 78.53125 C 42.429688 76.132812 44.265625 73.777344 46.164062 71.464844 C 48.058594 69.15625 50.011719 66.894531 52.015625 64.679688 C 54.023438 62.464844 56.085938 60.300781 58.199219 58.1875 C 60.3125 56.074219 62.476562 54.011719 64.691406 52.007812 C 66.90625 50 69.167969 48.046875 71.476562 46.152344 C 73.789062 44.253906 76.144531 42.417969 78.542969 40.636719 C 80.945312 38.855469 83.386719 37.136719 85.871094 35.476562 C 88.359375 33.816406 90.882812 32.214844 93.445312 30.679688 C 96.007812 29.144531 98.609375 27.671875 101.246094 26.261719 C 103.882812 24.851562 106.550781 23.507812 109.25 22.230469 C 111.953125 20.953125 114.683594 19.742188 117.445312 18.597656 C 120.207031 17.453125 122.996094 16.378906 125.808594 15.371094 C 128.625 14.367188 131.460938 13.429688 134.320312 12.5625 C 137.179688 11.691406 140.0625 10.894531 142.960938 10.171875 C 145.859375 9.445312 148.773438 8.789062 151.707031 8.207031 C 154.636719 7.621094 157.582031 7.113281 160.539062 6.671875 C 163.496094 6.234375 166.460938 5.871094 169.433594 5.578125 C 172.410156 5.285156 175.386719 5.0625 178.375 4.917969 C 181.359375 4.769531 184.347656 4.695312 187.335938 4.695312 C 190.324219 4.695312 193.3125 4.769531 196.296875 4.917969 C 199.28125 5.0625 202.261719 5.285156 205.234375 5.578125 C 208.210938 5.871094 211.175781 6.234375 214.132812 6.671875 C 217.089844 7.113281 220.03125 7.621094 222.964844 8.207031 C 225.894531 8.789062 228.808594 9.445312 231.710938 10.171875 C 234.609375 10.894531 237.488281 11.691406 240.347656 12.5625 C 243.207031 13.429688 246.046875 14.367188 248.859375 15.371094 C 251.675781 16.378906 254.460938 17.453125 257.222656 18.597656 C 259.984375 19.742188 262.714844 20.953125 265.417969 22.230469 C 268.121094 23.507812 270.789062 24.851562 273.425781 26.261719 C 276.058594 27.671875 278.660156 29.144531 281.222656 30.679688 C 283.789062 32.214844 286.3125 33.816406 288.796875 35.476562 C 291.28125 37.136719 293.726562 38.855469 296.125 40.636719 C 298.527344 42.417969 300.882812 44.253906 303.191406 46.152344 C 305.503906 48.046875 307.765625 50 309.980469 52.007812 C 312.195312 54.011719 314.359375 56.074219 316.472656 58.1875 C 318.585938 60.300781 320.644531 62.464844 322.652344 64.679688 C 324.660156 66.894531 326.609375 69.15625 328.507812 71.464844 C 330.402344 73.777344 332.242188 76.132812 334.023438 78.53125 C 335.800781 80.933594 337.523438 83.375 339.183594 85.863281 C 340.84375 88.347656 342.441406 90.871094 343.980469 93.433594 C 345.515625 96 346.988281 98.597656 348.398438 101.234375 C 349.804688 103.871094 351.148438 106.539062 352.425781 109.242188 C 353.707031 111.941406 354.914062 114.675781 356.058594 117.433594 C 357.203125 120.195312 358.277344 122.984375 359.285156 125.796875 C 360.292969 128.613281 361.230469 131.449219 362.097656 134.308594 C 362.964844 137.167969 363.761719 140.050781 364.488281 142.949219 C 365.214844 145.847656 365.867188 148.761719 366.453125 151.695312 C 367.035156 154.625 367.546875 157.570312 367.984375 160.527344 C 368.421875 163.484375 368.789062 166.449219 369.082031 169.421875 C 369.375 172.398438 369.59375 175.378906 369.742188 178.363281 C 369.886719 181.347656 369.960938 184.335938 369.960938 187.324219 Z M 369.960938 187.324219 " fill-opacity="1" fill-rule="nonzero"/></g><path fill="#ffffff" d="M 233.175781 196.71875 L 238.339844 156.683594 L 198.691406 156.683594 L 198.691406 131.117188 C 198.691406 119.527344 201.925781 111.628906 218.542969 111.628906 L 239.726562 111.617188 L 239.726562 75.808594 C 236.070312 75.320312 223.496094 74.230469 208.839844 74.230469 C 178.269531 74.230469 157.355469 92.890625 157.355469 127.15625 L 157.355469 156.683594 L 122.78125 156.683594 L 122.78125 196.71875 L 157.355469 196.71875 L 157.355469 299.445312 L 198.691406 299.445312 L 198.691406 196.71875 Z M 233.175781 196.71875 " fill-opacity="1" fill-rule="nonzero"/></svg>