<svg xmlns="http://www.w3.org/2000/svg" xmlns:xlink="http://www.w3.org/1999/xlink" width="500" zoomAndPan="magnify" viewBox="0 0 375 374.999991" height="500" preserveAspectRatio="xMidYMid meet" version="1.0"><rect x="-37.5" width="450" fill="#ffffff" y="-37.499999" height="449.999989" fill-opacity="1"/><rect x="-37.5" width="450" fill="#ffffff" y="-37.499999" height="449.999989" fill-opacity="1"/><path fill="#4285f4" d="M 352.5 191.40625 C 352.5 179.21875 351.40625 167.5 349.375 156.25 L 187.5 156.25 L 187.5 222.734375 L 280 222.734375 C 276.015625 244.21875 263.90625 262.421875 245.703125 274.609375 L 245.703125 317.734375 L 301.25 317.734375 C 333.75 287.8125 352.5 243.75 352.5 191.40625 Z M 352.5 191.40625 " fill-opacity="1" fill-rule="nonzero"/><path fill="#34a853" d="M 187.5 359.375 C 233.90625 359.375 272.8125 343.984375 301.25 317.734375 L 245.703125 274.609375 C 230.3125 284.921875 210.625 291.015625 187.5 291.015625 C 142.734375 291.015625 104.84375 260.78125 91.328125 220.15625 L 33.90625 220.15625 L 33.90625 264.6875 C 62.1875 320.859375 120.3125 359.375 187.5 359.375 Z M 187.5 359.375 " fill-opacity="1" fill-rule="nonzero"/><path fill="#fbbc05" d="M 91.328125 220.15625 C 87.890625 209.84375 85.9375 198.828125 85.9375 187.5 C 85.9375 176.171875 87.890625 165.15625 91.328125 154.84375 L 91.328125 110.3125 L 33.90625 110.3125 C 30.910156 116.28125 28.269531 122.402344 25.984375 128.675781 C 23.699219 134.953125 21.789062 141.339844 20.25 147.835938 C 18.710938 154.335938 17.554688 160.902344 16.78125 167.535156 C 16.007812 174.167969 15.621094 180.820312 15.625 187.5 C 15.625 215.234375 22.265625 241.484375 33.90625 264.6875 Z M 91.328125 220.15625 " fill-opacity="1" fill-rule="nonzero"/><path fill="#ea4335" d="M 187.5 83.984375 C 212.734375 83.984375 235.390625 92.65625 253.203125 109.6875 L 302.5 60.390625 C 272.734375 32.65625 233.828125 15.625 187.5 15.625 C 120.3125 15.625 62.1875 54.140625 33.90625 110.3125 L 91.328125 154.84375 C 104.84375 114.21875 142.734375 83.984375 187.5 83.984375 Z M 187.5 83.984375 " fill-opacity="1" fill-rule="nonzero"/></svg>